{
	"patcher" : 	{
		"fileversion" : 1,
		"appversion" : 		{
			"major" : 7,
			"minor" : 3,
			"revision" : 6,
			"architecture" : "x86",
			"modernui" : 1
		}
,
		"rect" : [ 34.0, 79.0, 1078.0, 787.0 ],
		"bglocked" : 0,
		"openinpresentation" : 0,
		"default_fontsize" : 12.0,
		"default_fontface" : 0,
		"default_fontname" : "Arial",
		"gridonopen" : 1,
		"gridsize" : [ 15.0, 15.0 ],
		"gridsnaponopen" : 1,
		"objectsnaponopen" : 1,
		"statusbarvisible" : 2,
		"toolbarvisible" : 1,
		"lefttoolbarpinned" : 0,
		"toptoolbarpinned" : 0,
		"righttoolbarpinned" : 0,
		"bottomtoolbarpinned" : 0,
		"toolbars_unpinned_last_save" : 0,
		"tallnewobj" : 0,
		"boxanimatetime" : 200,
		"enablehscroll" : 1,
		"enablevscroll" : 1,
		"devicewidth" : 0.0,
		"description" : "",
		"digest" : "",
		"tags" : "",
		"style" : "",
		"subpatcher_template" : "",
		"boxes" : [ 			{
				"box" : 				{
					"id" : "obj-127",
					"maxclass" : "newobj",
					"numinlets" : 4,
					"numoutlets" : 3,
					"outlettype" : [ "float", "float", "float" ],
					"patcher" : 					{
						"fileversion" : 1,
						"appversion" : 						{
							"major" : 7,
							"minor" : 3,
							"revision" : 6,
							"architecture" : "x86",
							"modernui" : 1
						}
,
						"rect" : [ 59.0, 104.0, 640.0, 480.0 ],
						"bglocked" : 0,
						"openinpresentation" : 0,
						"default_fontsize" : 12.0,
						"default_fontface" : 0,
						"default_fontname" : "Arial",
						"gridonopen" : 1,
						"gridsize" : [ 15.0, 15.0 ],
						"gridsnaponopen" : 1,
						"objectsnaponopen" : 1,
						"statusbarvisible" : 2,
						"toolbarvisible" : 1,
						"lefttoolbarpinned" : 0,
						"toptoolbarpinned" : 0,
						"righttoolbarpinned" : 0,
						"bottomtoolbarpinned" : 0,
						"toolbars_unpinned_last_save" : 0,
						"tallnewobj" : 0,
						"boxanimatetime" : 200,
						"enablehscroll" : 1,
						"enablevscroll" : 1,
						"devicewidth" : 0.0,
						"description" : "",
						"digest" : "",
						"tags" : "",
						"style" : "",
						"subpatcher_template" : "",
						"boxes" : [ 							{
								"box" : 								{
									"id" : "obj-1",
									"maxclass" : "newobj",
									"numinlets" : 1,
									"numoutlets" : 1,
									"outlettype" : [ "bang" ],
									"patching_rect" : [ 316.0, 395.500031, 60.0, 22.0 ],
									"style" : "",
									"text" : "loadbang"
								}

							}
, 							{
								"box" : 								{
									"id" : "obj-118",
									"linecount" : 2,
									"maxclass" : "comment",
									"numinlets" : 1,
									"numoutlets" : 0,
									"patching_rect" : [ 375.0, 444.399994, 150.0, 33.0 ],
									"style" : "",
									"text" : "close to 0 moves faster\nclose to 1 moves slower"
								}

							}
, 							{
								"box" : 								{
									"id" : "obj-110",
									"maxclass" : "newobj",
									"numinlets" : 2,
									"numoutlets" : 1,
									"outlettype" : [ "float" ],
									"patcher" : 									{
										"fileversion" : 1,
										"appversion" : 										{
											"major" : 7,
											"minor" : 3,
											"revision" : 6,
											"architecture" : "x86",
											"modernui" : 1
										}
,
										"rect" : [ 59.0, 104.0, 640.0, 480.0 ],
										"bglocked" : 0,
										"openinpresentation" : 0,
										"default_fontsize" : 12.0,
										"default_fontface" : 0,
										"default_fontname" : "Arial",
										"gridonopen" : 1,
										"gridsize" : [ 15.0, 15.0 ],
										"gridsnaponopen" : 1,
										"objectsnaponopen" : 1,
										"statusbarvisible" : 2,
										"toolbarvisible" : 1,
										"lefttoolbarpinned" : 0,
										"toptoolbarpinned" : 0,
										"righttoolbarpinned" : 0,
										"bottomtoolbarpinned" : 0,
										"toolbars_unpinned_last_save" : 0,
										"tallnewobj" : 0,
										"boxanimatetime" : 200,
										"enablehscroll" : 1,
										"enablevscroll" : 1,
										"devicewidth" : 0.0,
										"description" : "",
										"digest" : "",
										"tags" : "",
										"style" : "",
										"subpatcher_template" : "",
										"boxes" : [ 											{
												"box" : 												{
													"id" : "obj-97",
													"maxclass" : "newobj",
													"numinlets" : 2,
													"numoutlets" : 1,
													"outlettype" : [ "float" ],
													"patching_rect" : [ 137.5, 297.0, 31.0, 22.0 ],
													"style" : "",
													"text" : "+ 0."
												}

											}
, 											{
												"box" : 												{
													"id" : "obj-92",
													"maxclass" : "newobj",
													"numinlets" : 1,
													"numoutlets" : 2,
													"outlettype" : [ "float", "bang" ],
													"patching_rect" : [ 147.0, 119.0, 31.0, 22.0 ],
													"style" : "",
													"text" : "t f b"
												}

											}
, 											{
												"box" : 												{
													"id" : "obj-89",
													"maxclass" : "newobj",
													"numinlets" : 2,
													"numoutlets" : 1,
													"outlettype" : [ "float" ],
													"patching_rect" : [ 115.0, 250.0, 29.5, 22.0 ],
													"style" : "",
													"text" : "* 0."
												}

											}
, 											{
												"box" : 												{
													"id" : "obj-88",
													"maxclass" : "newobj",
													"numinlets" : 2,
													"numoutlets" : 1,
													"outlettype" : [ "float" ],
													"patching_rect" : [ 149.5, 243.0, 29.5, 22.0 ],
													"style" : "",
													"text" : "* 0."
												}

											}
, 											{
												"box" : 												{
													"id" : "obj-85",
													"maxclass" : "newobj",
													"numinlets" : 2,
													"numoutlets" : 1,
													"outlettype" : [ "float" ],
													"patching_rect" : [ 147.0, 149.600037, 29.5, 22.0 ],
													"style" : "",
													"text" : "f"
												}

											}
, 											{
												"box" : 												{
													"format" : 6,
													"id" : "obj-84",
													"maxclass" : "flonum",
													"numinlets" : 1,
													"numoutlets" : 2,
													"outlettype" : [ "", "bang" ],
													"parameter_enable" : 0,
													"patching_rect" : [ 50.0, 215.0, 50.0, 22.0 ],
													"style" : ""
												}

											}
, 											{
												"box" : 												{
													"id" : "obj-82",
													"maxclass" : "newobj",
													"numinlets" : 2,
													"numoutlets" : 1,
													"outlettype" : [ "float" ],
													"patching_rect" : [ 52.0, 176.0, 29.5, 22.0 ],
													"style" : "",
													"text" : "- 0."
												}

											}
, 											{
												"box" : 												{
													"id" : "obj-81",
													"maxclass" : "newobj",
													"numinlets" : 1,
													"numoutlets" : 2,
													"outlettype" : [ "bang", "float" ],
													"patching_rect" : [ 51.75, 100.0, 31.0, 22.0 ],
													"style" : "",
													"text" : "t b f"
												}

											}
, 											{
												"box" : 												{
													"id" : "obj-78",
													"maxclass" : "message",
													"numinlets" : 2,
													"numoutlets" : 1,
													"outlettype" : [ "" ],
													"patching_rect" : [ 51.75, 136.0, 29.5, 22.0 ],
													"style" : "",
													"text" : "1."
												}

											}
, 											{
												"box" : 												{
													"comment" : "",
													"id" : "obj-100",
													"index" : 2,
													"maxclass" : "inlet",
													"numinlets" : 0,
													"numoutlets" : 1,
													"outlettype" : [ "" ],
													"patching_rect" : [ 106.625, 33.0, 30.0, 30.0 ],
													"style" : ""
												}

											}
, 											{
												"box" : 												{
													"comment" : "",
													"id" : "obj-101",
													"index" : 1,
													"maxclass" : "inlet",
													"numinlets" : 0,
													"numoutlets" : 1,
													"outlettype" : [ "" ],
													"patching_rect" : [ 51.75, 33.0, 30.0, 30.0 ],
													"style" : ""
												}

											}
, 											{
												"box" : 												{
													"comment" : "",
													"id" : "obj-102",
													"index" : 1,
													"maxclass" : "outlet",
													"numinlets" : 1,
													"numoutlets" : 0,
													"patching_rect" : [ 137.5, 387.954468, 30.0, 30.0 ],
													"style" : ""
												}

											}
 ],
										"lines" : [ 											{
												"patchline" : 												{
													"destination" : [ "obj-81", 0 ],
													"order" : 1,
													"source" : [ "obj-100", 0 ]
												}

											}
, 											{
												"patchline" : 												{
													"destination" : [ "obj-88", 1 ],
													"order" : 0,
													"source" : [ "obj-100", 0 ]
												}

											}
, 											{
												"patchline" : 												{
													"destination" : [ "obj-89", 0 ],
													"source" : [ "obj-101", 0 ]
												}

											}
, 											{
												"patchline" : 												{
													"destination" : [ "obj-82", 0 ],
													"source" : [ "obj-78", 0 ]
												}

											}
, 											{
												"patchline" : 												{
													"destination" : [ "obj-78", 0 ],
													"source" : [ "obj-81", 0 ]
												}

											}
, 											{
												"patchline" : 												{
													"destination" : [ "obj-82", 1 ],
													"source" : [ "obj-81", 1 ]
												}

											}
, 											{
												"patchline" : 												{
													"destination" : [ "obj-84", 0 ],
													"source" : [ "obj-82", 0 ]
												}

											}
, 											{
												"patchline" : 												{
													"destination" : [ "obj-89", 1 ],
													"source" : [ "obj-84", 0 ]
												}

											}
, 											{
												"patchline" : 												{
													"destination" : [ "obj-88", 0 ],
													"source" : [ "obj-85", 0 ]
												}

											}
, 											{
												"patchline" : 												{
													"destination" : [ "obj-97", 1 ],
													"source" : [ "obj-88", 0 ]
												}

											}
, 											{
												"patchline" : 												{
													"destination" : [ "obj-97", 0 ],
													"source" : [ "obj-89", 0 ]
												}

											}
, 											{
												"patchline" : 												{
													"destination" : [ "obj-85", 0 ],
													"source" : [ "obj-92", 1 ]
												}

											}
, 											{
												"patchline" : 												{
													"destination" : [ "obj-85", 1 ],
													"source" : [ "obj-92", 0 ]
												}

											}
, 											{
												"patchline" : 												{
													"destination" : [ "obj-102", 0 ],
													"order" : 1,
													"source" : [ "obj-97", 0 ]
												}

											}
, 											{
												"patchline" : 												{
													"destination" : [ "obj-92", 0 ],
													"order" : 0,
													"source" : [ "obj-97", 0 ]
												}

											}
 ]
									}
,
									"patching_rect" : [ 231.0, 544.5, 104.0, 22.0 ],
									"saved_object_attributes" : 									{
										"description" : "",
										"digest" : "",
										"globalpatchername" : "",
										"style" : "",
										"tags" : ""
									}
,
									"style" : "",
									"text" : "p movingAverage"
								}

							}
, 							{
								"box" : 								{
									"id" : "obj-108",
									"maxclass" : "newobj",
									"numinlets" : 2,
									"numoutlets" : 1,
									"outlettype" : [ "float" ],
									"patcher" : 									{
										"fileversion" : 1,
										"appversion" : 										{
											"major" : 7,
											"minor" : 3,
											"revision" : 6,
											"architecture" : "x86",
											"modernui" : 1
										}
,
										"rect" : [ 59.0, 104.0, 640.0, 480.0 ],
										"bglocked" : 0,
										"openinpresentation" : 0,
										"default_fontsize" : 12.0,
										"default_fontface" : 0,
										"default_fontname" : "Arial",
										"gridonopen" : 1,
										"gridsize" : [ 15.0, 15.0 ],
										"gridsnaponopen" : 1,
										"objectsnaponopen" : 1,
										"statusbarvisible" : 2,
										"toolbarvisible" : 1,
										"lefttoolbarpinned" : 0,
										"toptoolbarpinned" : 0,
										"righttoolbarpinned" : 0,
										"bottomtoolbarpinned" : 0,
										"toolbars_unpinned_last_save" : 0,
										"tallnewobj" : 0,
										"boxanimatetime" : 200,
										"enablehscroll" : 1,
										"enablevscroll" : 1,
										"devicewidth" : 0.0,
										"description" : "",
										"digest" : "",
										"tags" : "",
										"style" : "",
										"subpatcher_template" : "",
										"boxes" : [ 											{
												"box" : 												{
													"id" : "obj-97",
													"maxclass" : "newobj",
													"numinlets" : 2,
													"numoutlets" : 1,
													"outlettype" : [ "float" ],
													"patching_rect" : [ 137.5, 297.0, 31.0, 22.0 ],
													"style" : "",
													"text" : "+ 0."
												}

											}
, 											{
												"box" : 												{
													"id" : "obj-92",
													"maxclass" : "newobj",
													"numinlets" : 1,
													"numoutlets" : 2,
													"outlettype" : [ "float", "bang" ],
													"patching_rect" : [ 147.0, 119.0, 31.0, 22.0 ],
													"style" : "",
													"text" : "t f b"
												}

											}
, 											{
												"box" : 												{
													"id" : "obj-89",
													"maxclass" : "newobj",
													"numinlets" : 2,
													"numoutlets" : 1,
													"outlettype" : [ "float" ],
													"patching_rect" : [ 115.0, 250.0, 29.5, 22.0 ],
													"style" : "",
													"text" : "* 0."
												}

											}
, 											{
												"box" : 												{
													"id" : "obj-88",
													"maxclass" : "newobj",
													"numinlets" : 2,
													"numoutlets" : 1,
													"outlettype" : [ "float" ],
													"patching_rect" : [ 149.5, 243.0, 29.5, 22.0 ],
													"style" : "",
													"text" : "* 0."
												}

											}
, 											{
												"box" : 												{
													"id" : "obj-85",
													"maxclass" : "newobj",
													"numinlets" : 2,
													"numoutlets" : 1,
													"outlettype" : [ "float" ],
													"patching_rect" : [ 147.0, 149.600037, 29.5, 22.0 ],
													"style" : "",
													"text" : "f"
												}

											}
, 											{
												"box" : 												{
													"format" : 6,
													"id" : "obj-84",
													"maxclass" : "flonum",
													"numinlets" : 1,
													"numoutlets" : 2,
													"outlettype" : [ "", "bang" ],
													"parameter_enable" : 0,
													"patching_rect" : [ 50.0, 215.0, 50.0, 22.0 ],
													"style" : ""
												}

											}
, 											{
												"box" : 												{
													"id" : "obj-82",
													"maxclass" : "newobj",
													"numinlets" : 2,
													"numoutlets" : 1,
													"outlettype" : [ "float" ],
													"patching_rect" : [ 52.0, 176.0, 29.5, 22.0 ],
													"style" : "",
													"text" : "- 0."
												}

											}
, 											{
												"box" : 												{
													"id" : "obj-81",
													"maxclass" : "newobj",
													"numinlets" : 1,
													"numoutlets" : 2,
													"outlettype" : [ "bang", "float" ],
													"patching_rect" : [ 51.75, 100.0, 31.0, 22.0 ],
													"style" : "",
													"text" : "t b f"
												}

											}
, 											{
												"box" : 												{
													"id" : "obj-78",
													"maxclass" : "message",
													"numinlets" : 2,
													"numoutlets" : 1,
													"outlettype" : [ "" ],
													"patching_rect" : [ 51.75, 136.0, 29.5, 22.0 ],
													"style" : "",
													"text" : "1."
												}

											}
, 											{
												"box" : 												{
													"comment" : "",
													"id" : "obj-100",
													"index" : 2,
													"maxclass" : "inlet",
													"numinlets" : 0,
													"numoutlets" : 1,
													"outlettype" : [ "" ],
													"patching_rect" : [ 106.625, 33.0, 30.0, 30.0 ],
													"style" : ""
												}

											}
, 											{
												"box" : 												{
													"comment" : "",
													"id" : "obj-101",
													"index" : 1,
													"maxclass" : "inlet",
													"numinlets" : 0,
													"numoutlets" : 1,
													"outlettype" : [ "" ],
													"patching_rect" : [ 51.75, 33.0, 30.0, 30.0 ],
													"style" : ""
												}

											}
, 											{
												"box" : 												{
													"comment" : "",
													"id" : "obj-102",
													"index" : 1,
													"maxclass" : "outlet",
													"numinlets" : 1,
													"numoutlets" : 0,
													"patching_rect" : [ 137.5, 387.954468, 30.0, 30.0 ],
													"style" : ""
												}

											}
 ],
										"lines" : [ 											{
												"patchline" : 												{
													"destination" : [ "obj-81", 0 ],
													"order" : 1,
													"source" : [ "obj-100", 0 ]
												}

											}
, 											{
												"patchline" : 												{
													"destination" : [ "obj-88", 1 ],
													"order" : 0,
													"source" : [ "obj-100", 0 ]
												}

											}
, 											{
												"patchline" : 												{
													"destination" : [ "obj-89", 0 ],
													"source" : [ "obj-101", 0 ]
												}

											}
, 											{
												"patchline" : 												{
													"destination" : [ "obj-82", 0 ],
													"source" : [ "obj-78", 0 ]
												}

											}
, 											{
												"patchline" : 												{
													"destination" : [ "obj-78", 0 ],
													"source" : [ "obj-81", 0 ]
												}

											}
, 											{
												"patchline" : 												{
													"destination" : [ "obj-82", 1 ],
													"source" : [ "obj-81", 1 ]
												}

											}
, 											{
												"patchline" : 												{
													"destination" : [ "obj-84", 0 ],
													"source" : [ "obj-82", 0 ]
												}

											}
, 											{
												"patchline" : 												{
													"destination" : [ "obj-89", 1 ],
													"source" : [ "obj-84", 0 ]
												}

											}
, 											{
												"patchline" : 												{
													"destination" : [ "obj-88", 0 ],
													"source" : [ "obj-85", 0 ]
												}

											}
, 											{
												"patchline" : 												{
													"destination" : [ "obj-97", 1 ],
													"source" : [ "obj-88", 0 ]
												}

											}
, 											{
												"patchline" : 												{
													"destination" : [ "obj-97", 0 ],
													"source" : [ "obj-89", 0 ]
												}

											}
, 											{
												"patchline" : 												{
													"destination" : [ "obj-85", 0 ],
													"source" : [ "obj-92", 1 ]
												}

											}
, 											{
												"patchline" : 												{
													"destination" : [ "obj-85", 1 ],
													"source" : [ "obj-92", 0 ]
												}

											}
, 											{
												"patchline" : 												{
													"destination" : [ "obj-102", 0 ],
													"order" : 1,
													"source" : [ "obj-97", 0 ]
												}

											}
, 											{
												"patchline" : 												{
													"destination" : [ "obj-92", 0 ],
													"order" : 0,
													"source" : [ "obj-97", 0 ]
												}

											}
 ]
									}
,
									"patching_rect" : [ 135.0, 506.500031, 104.0, 22.0 ],
									"saved_object_attributes" : 									{
										"description" : "",
										"digest" : "",
										"globalpatchername" : "",
										"style" : "",
										"tags" : ""
									}
,
									"style" : "",
									"text" : "p movingAverage"
								}

							}
, 							{
								"box" : 								{
									"id" : "obj-107",
									"maxclass" : "comment",
									"numinlets" : 1,
									"numoutlets" : 0,
									"patching_rect" : [ 375.0, 419.500031, 70.0, 20.0 ],
									"style" : "",
									"text" : "betwee 0:1"
								}

							}
, 							{
								"box" : 								{
									"id" : "obj-105",
									"maxclass" : "message",
									"numinlets" : 2,
									"numoutlets" : 1,
									"outlettype" : [ "" ],
									"patching_rect" : [ 316.0, 428.500031, 29.5, 22.0 ],
									"style" : "",
									"text" : "0.5"
								}

							}
, 							{
								"box" : 								{
									"id" : "obj-103",
									"maxclass" : "newobj",
									"numinlets" : 2,
									"numoutlets" : 1,
									"outlettype" : [ "float" ],
									"patcher" : 									{
										"fileversion" : 1,
										"appversion" : 										{
											"major" : 7,
											"minor" : 3,
											"revision" : 6,
											"architecture" : "x86",
											"modernui" : 1
										}
,
										"rect" : [ 59.0, 104.0, 640.0, 480.0 ],
										"bglocked" : 0,
										"openinpresentation" : 0,
										"default_fontsize" : 12.0,
										"default_fontface" : 0,
										"default_fontname" : "Arial",
										"gridonopen" : 1,
										"gridsize" : [ 15.0, 15.0 ],
										"gridsnaponopen" : 1,
										"objectsnaponopen" : 1,
										"statusbarvisible" : 2,
										"toolbarvisible" : 1,
										"lefttoolbarpinned" : 0,
										"toptoolbarpinned" : 0,
										"righttoolbarpinned" : 0,
										"bottomtoolbarpinned" : 0,
										"toolbars_unpinned_last_save" : 0,
										"tallnewobj" : 0,
										"boxanimatetime" : 200,
										"enablehscroll" : 1,
										"enablevscroll" : 1,
										"devicewidth" : 0.0,
										"description" : "",
										"digest" : "",
										"tags" : "",
										"style" : "",
										"subpatcher_template" : "",
										"boxes" : [ 											{
												"box" : 												{
													"id" : "obj-97",
													"maxclass" : "newobj",
													"numinlets" : 2,
													"numoutlets" : 1,
													"outlettype" : [ "float" ],
													"patching_rect" : [ 137.5, 297.0, 31.0, 22.0 ],
													"style" : "",
													"text" : "+ 0."
												}

											}
, 											{
												"box" : 												{
													"id" : "obj-92",
													"maxclass" : "newobj",
													"numinlets" : 1,
													"numoutlets" : 2,
													"outlettype" : [ "float", "bang" ],
													"patching_rect" : [ 147.0, 119.0, 31.0, 22.0 ],
													"style" : "",
													"text" : "t f b"
												}

											}
, 											{
												"box" : 												{
													"id" : "obj-89",
													"maxclass" : "newobj",
													"numinlets" : 2,
													"numoutlets" : 1,
													"outlettype" : [ "float" ],
													"patching_rect" : [ 115.0, 250.0, 29.5, 22.0 ],
													"style" : "",
													"text" : "* 0."
												}

											}
, 											{
												"box" : 												{
													"id" : "obj-88",
													"maxclass" : "newobj",
													"numinlets" : 2,
													"numoutlets" : 1,
													"outlettype" : [ "float" ],
													"patching_rect" : [ 149.5, 243.0, 29.5, 22.0 ],
													"style" : "",
													"text" : "* 0."
												}

											}
, 											{
												"box" : 												{
													"id" : "obj-85",
													"maxclass" : "newobj",
													"numinlets" : 2,
													"numoutlets" : 1,
													"outlettype" : [ "float" ],
													"patching_rect" : [ 147.0, 149.600037, 29.5, 22.0 ],
													"style" : "",
													"text" : "f"
												}

											}
, 											{
												"box" : 												{
													"format" : 6,
													"id" : "obj-84",
													"maxclass" : "flonum",
													"numinlets" : 1,
													"numoutlets" : 2,
													"outlettype" : [ "", "bang" ],
													"parameter_enable" : 0,
													"patching_rect" : [ 50.0, 215.0, 50.0, 22.0 ],
													"style" : ""
												}

											}
, 											{
												"box" : 												{
													"id" : "obj-82",
													"maxclass" : "newobj",
													"numinlets" : 2,
													"numoutlets" : 1,
													"outlettype" : [ "float" ],
													"patching_rect" : [ 52.0, 176.0, 29.5, 22.0 ],
													"style" : "",
													"text" : "- 0."
												}

											}
, 											{
												"box" : 												{
													"id" : "obj-81",
													"maxclass" : "newobj",
													"numinlets" : 1,
													"numoutlets" : 2,
													"outlettype" : [ "bang", "float" ],
													"patching_rect" : [ 51.75, 100.0, 31.0, 22.0 ],
													"style" : "",
													"text" : "t b f"
												}

											}
, 											{
												"box" : 												{
													"id" : "obj-78",
													"maxclass" : "message",
													"numinlets" : 2,
													"numoutlets" : 1,
													"outlettype" : [ "" ],
													"patching_rect" : [ 51.75, 136.0, 29.5, 22.0 ],
													"style" : "",
													"text" : "1."
												}

											}
, 											{
												"box" : 												{
													"comment" : "",
													"id" : "obj-100",
													"index" : 2,
													"maxclass" : "inlet",
													"numinlets" : 0,
													"numoutlets" : 1,
													"outlettype" : [ "" ],
													"patching_rect" : [ 106.625, 33.0, 30.0, 30.0 ],
													"style" : ""
												}

											}
, 											{
												"box" : 												{
													"comment" : "",
													"id" : "obj-101",
													"index" : 1,
													"maxclass" : "inlet",
													"numinlets" : 0,
													"numoutlets" : 1,
													"outlettype" : [ "" ],
													"patching_rect" : [ 51.75, 33.0, 30.0, 30.0 ],
													"style" : ""
												}

											}
, 											{
												"box" : 												{
													"comment" : "",
													"id" : "obj-102",
													"index" : 1,
													"maxclass" : "outlet",
													"numinlets" : 1,
													"numoutlets" : 0,
													"patching_rect" : [ 137.5, 387.954468, 30.0, 30.0 ],
													"style" : ""
												}

											}
 ],
										"lines" : [ 											{
												"patchline" : 												{
													"destination" : [ "obj-81", 0 ],
													"order" : 1,
													"source" : [ "obj-100", 0 ]
												}

											}
, 											{
												"patchline" : 												{
													"destination" : [ "obj-88", 1 ],
													"order" : 0,
													"source" : [ "obj-100", 0 ]
												}

											}
, 											{
												"patchline" : 												{
													"destination" : [ "obj-89", 0 ],
													"source" : [ "obj-101", 0 ]
												}

											}
, 											{
												"patchline" : 												{
													"destination" : [ "obj-82", 0 ],
													"source" : [ "obj-78", 0 ]
												}

											}
, 											{
												"patchline" : 												{
													"destination" : [ "obj-78", 0 ],
													"source" : [ "obj-81", 0 ]
												}

											}
, 											{
												"patchline" : 												{
													"destination" : [ "obj-82", 1 ],
													"source" : [ "obj-81", 1 ]
												}

											}
, 											{
												"patchline" : 												{
													"destination" : [ "obj-84", 0 ],
													"source" : [ "obj-82", 0 ]
												}

											}
, 											{
												"patchline" : 												{
													"destination" : [ "obj-89", 1 ],
													"source" : [ "obj-84", 0 ]
												}

											}
, 											{
												"patchline" : 												{
													"destination" : [ "obj-88", 0 ],
													"source" : [ "obj-85", 0 ]
												}

											}
, 											{
												"patchline" : 												{
													"destination" : [ "obj-97", 1 ],
													"source" : [ "obj-88", 0 ]
												}

											}
, 											{
												"patchline" : 												{
													"destination" : [ "obj-97", 0 ],
													"source" : [ "obj-89", 0 ]
												}

											}
, 											{
												"patchline" : 												{
													"destination" : [ "obj-85", 0 ],
													"source" : [ "obj-92", 1 ]
												}

											}
, 											{
												"patchline" : 												{
													"destination" : [ "obj-85", 1 ],
													"source" : [ "obj-92", 0 ]
												}

											}
, 											{
												"patchline" : 												{
													"destination" : [ "obj-102", 0 ],
													"order" : 1,
													"source" : [ "obj-97", 0 ]
												}

											}
, 											{
												"patchline" : 												{
													"destination" : [ "obj-92", 0 ],
													"order" : 0,
													"source" : [ "obj-97", 0 ]
												}

											}
 ]
									}
,
									"patching_rect" : [ 50.0, 473.500031, 104.0, 22.0 ],
									"saved_object_attributes" : 									{
										"description" : "",
										"digest" : "",
										"globalpatchername" : "",
										"style" : "",
										"tags" : ""
									}
,
									"style" : "",
									"text" : "p movingAverage"
								}

							}
, 							{
								"box" : 								{
									"format" : 6,
									"id" : "obj-74",
									"maxclass" : "flonum",
									"numinlets" : 1,
									"numoutlets" : 2,
									"outlettype" : [ "", "bang" ],
									"parameter_enable" : 0,
									"patching_rect" : [ 316.0, 456.100067, 50.0, 22.0 ],
									"style" : ""
								}

							}
, 							{
								"box" : 								{
									"id" : "obj-68",
									"maxclass" : "newobj",
									"numinlets" : 3,
									"numoutlets" : 1,
									"outlettype" : [ "int" ],
									"patcher" : 									{
										"fileversion" : 1,
										"appversion" : 										{
											"major" : 7,
											"minor" : 3,
											"revision" : 6,
											"architecture" : "x86",
											"modernui" : 1
										}
,
										"rect" : [ 59.0, 104.0, 640.0, 480.0 ],
										"bglocked" : 0,
										"openinpresentation" : 0,
										"default_fontsize" : 12.0,
										"default_fontface" : 0,
										"default_fontname" : "Arial",
										"gridonopen" : 1,
										"gridsize" : [ 15.0, 15.0 ],
										"gridsnaponopen" : 1,
										"objectsnaponopen" : 1,
										"statusbarvisible" : 2,
										"toolbarvisible" : 1,
										"lefttoolbarpinned" : 0,
										"toptoolbarpinned" : 0,
										"righttoolbarpinned" : 0,
										"bottomtoolbarpinned" : 0,
										"toolbars_unpinned_last_save" : 0,
										"tallnewobj" : 0,
										"boxanimatetime" : 200,
										"enablehscroll" : 1,
										"enablevscroll" : 1,
										"devicewidth" : 0.0,
										"description" : "",
										"digest" : "",
										"tags" : "",
										"style" : "",
										"subpatcher_template" : "",
										"boxes" : [ 											{
												"box" : 												{
													"comment" : "",
													"id" : "obj-3",
													"index" : 3,
													"maxclass" : "inlet",
													"numinlets" : 0,
													"numoutlets" : 1,
													"outlettype" : [ "bang" ],
													"patching_rect" : [ 214.0, 33.0, 30.0, 30.0 ],
													"style" : ""
												}

											}
, 											{
												"box" : 												{
													"id" : "obj-2",
													"maxclass" : "message",
													"numinlets" : 2,
													"numoutlets" : 1,
													"outlettype" : [ "" ],
													"patching_rect" : [ 214.0, 96.0, 37.0, 22.0 ],
													"style" : "",
													"text" : "5000"
												}

											}
, 											{
												"box" : 												{
													"id" : "obj-49",
													"maxclass" : "newobj",
													"numinlets" : 2,
													"numoutlets" : 2,
													"outlettype" : [ "int", "int" ],
													"patching_rect" : [ 92.0, 100.0, 59.0, 22.0 ],
													"style" : "",
													"text" : "minimum"
												}

											}
, 											{
												"box" : 												{
													"id" : "obj-48",
													"maxclass" : "newobj",
													"numinlets" : 2,
													"numoutlets" : 1,
													"outlettype" : [ "int" ],
													"patching_rect" : [ 50.0, 161.0, 29.5, 22.0 ],
													"style" : "",
													"text" : "i"
												}

											}
, 											{
												"box" : 												{
													"id" : "obj-45",
													"maxclass" : "newobj",
													"numinlets" : 1,
													"numoutlets" : 2,
													"outlettype" : [ "bang", "int" ],
													"patching_rect" : [ 92.0, 131.0, 30.0, 22.0 ],
													"style" : "",
													"text" : "t b i"
												}

											}
, 											{
												"box" : 												{
													"id" : "obj-29",
													"maxclass" : "newobj",
													"numinlets" : 2,
													"numoutlets" : 2,
													"outlettype" : [ "int", "int" ],
													"patching_rect" : [ 59.0, 189.0, 59.0, 22.0 ],
													"style" : "",
													"text" : "minimum"
												}

											}
, 											{
												"box" : 												{
													"comment" : "",
													"id" : "obj-53",
													"index" : 1,
													"maxclass" : "inlet",
													"numinlets" : 0,
													"numoutlets" : 1,
													"outlettype" : [ "int" ],
													"patching_rect" : [ 92.0, 40.0, 30.0, 30.0 ],
													"style" : ""
												}

											}
, 											{
												"box" : 												{
													"comment" : "",
													"id" : "obj-54",
													"index" : 2,
													"maxclass" : "inlet",
													"numinlets" : 0,
													"numoutlets" : 1,
													"outlettype" : [ "" ],
													"patching_rect" : [ 136.0, 40.0, 30.0, 30.0 ],
													"style" : ""
												}

											}
, 											{
												"box" : 												{
													"comment" : "",
													"id" : "obj-55",
													"index" : 1,
													"maxclass" : "outlet",
													"numinlets" : 1,
													"numoutlets" : 0,
													"patching_rect" : [ 59.0, 276.432129, 30.0, 30.0 ],
													"style" : ""
												}

											}
 ],
										"lines" : [ 											{
												"patchline" : 												{
													"destination" : [ "obj-45", 0 ],
													"order" : 0,
													"source" : [ "obj-2", 0 ]
												}

											}
, 											{
												"patchline" : 												{
													"destination" : [ "obj-48", 0 ],
													"order" : 1,
													"source" : [ "obj-2", 0 ]
												}

											}
, 											{
												"patchline" : 												{
													"destination" : [ "obj-48", 1 ],
													"order" : 0,
													"source" : [ "obj-29", 0 ]
												}

											}
, 											{
												"patchline" : 												{
													"destination" : [ "obj-55", 0 ],
													"order" : 1,
													"source" : [ "obj-29", 0 ]
												}

											}
, 											{
												"patchline" : 												{
													"destination" : [ "obj-2", 0 ],
													"source" : [ "obj-3", 0 ]
												}

											}
, 											{
												"patchline" : 												{
													"destination" : [ "obj-29", 1 ],
													"source" : [ "obj-45", 1 ]
												}

											}
, 											{
												"patchline" : 												{
													"destination" : [ "obj-48", 0 ],
													"source" : [ "obj-45", 0 ]
												}

											}
, 											{
												"patchline" : 												{
													"destination" : [ "obj-29", 0 ],
													"source" : [ "obj-48", 0 ]
												}

											}
, 											{
												"patchline" : 												{
													"destination" : [ "obj-45", 0 ],
													"source" : [ "obj-49", 0 ]
												}

											}
, 											{
												"patchline" : 												{
													"destination" : [ "obj-49", 0 ],
													"source" : [ "obj-53", 0 ]
												}

											}
, 											{
												"patchline" : 												{
													"destination" : [ "obj-49", 1 ],
													"source" : [ "obj-54", 0 ]
												}

											}
 ]
									}
,
									"patching_rect" : [ 115.5, 140.0, 78.0, 22.0 ],
									"saved_object_attributes" : 									{
										"description" : "",
										"digest" : "",
										"globalpatchername" : "",
										"style" : "",
										"tags" : ""
									}
,
									"style" : "",
									"text" : "p allTimeMin"
								}

							}
, 							{
								"box" : 								{
									"id" : "obj-66",
									"maxclass" : "newobj",
									"numinlets" : 3,
									"numoutlets" : 1,
									"outlettype" : [ "int" ],
									"patcher" : 									{
										"fileversion" : 1,
										"appversion" : 										{
											"major" : 7,
											"minor" : 3,
											"revision" : 6,
											"architecture" : "x86",
											"modernui" : 1
										}
,
										"rect" : [ 59.0, 104.0, 640.0, 480.0 ],
										"bglocked" : 0,
										"openinpresentation" : 0,
										"default_fontsize" : 12.0,
										"default_fontface" : 0,
										"default_fontname" : "Arial",
										"gridonopen" : 1,
										"gridsize" : [ 15.0, 15.0 ],
										"gridsnaponopen" : 1,
										"objectsnaponopen" : 1,
										"statusbarvisible" : 2,
										"toolbarvisible" : 1,
										"lefttoolbarpinned" : 0,
										"toptoolbarpinned" : 0,
										"righttoolbarpinned" : 0,
										"bottomtoolbarpinned" : 0,
										"toolbars_unpinned_last_save" : 0,
										"tallnewobj" : 0,
										"boxanimatetime" : 200,
										"enablehscroll" : 1,
										"enablevscroll" : 1,
										"devicewidth" : 0.0,
										"description" : "",
										"digest" : "",
										"tags" : "",
										"style" : "",
										"subpatcher_template" : "",
										"boxes" : [ 											{
												"box" : 												{
													"comment" : "",
													"id" : "obj-3",
													"index" : 3,
													"maxclass" : "inlet",
													"numinlets" : 0,
													"numoutlets" : 1,
													"outlettype" : [ "bang" ],
													"patching_rect" : [ 214.0, 33.0, 30.0, 30.0 ],
													"style" : ""
												}

											}
, 											{
												"box" : 												{
													"id" : "obj-2",
													"maxclass" : "message",
													"numinlets" : 2,
													"numoutlets" : 1,
													"outlettype" : [ "" ],
													"patching_rect" : [ 214.0, 96.0, 37.0, 22.0 ],
													"style" : "",
													"text" : "5000"
												}

											}
, 											{
												"box" : 												{
													"id" : "obj-49",
													"maxclass" : "newobj",
													"numinlets" : 2,
													"numoutlets" : 2,
													"outlettype" : [ "int", "int" ],
													"patching_rect" : [ 92.0, 100.0, 59.0, 22.0 ],
													"style" : "",
													"text" : "minimum"
												}

											}
, 											{
												"box" : 												{
													"id" : "obj-48",
													"maxclass" : "newobj",
													"numinlets" : 2,
													"numoutlets" : 1,
													"outlettype" : [ "int" ],
													"patching_rect" : [ 50.0, 161.0, 29.5, 22.0 ],
													"style" : "",
													"text" : "i"
												}

											}
, 											{
												"box" : 												{
													"id" : "obj-45",
													"maxclass" : "newobj",
													"numinlets" : 1,
													"numoutlets" : 2,
													"outlettype" : [ "bang", "int" ],
													"patching_rect" : [ 92.0, 131.0, 30.0, 22.0 ],
													"style" : "",
													"text" : "t b i"
												}

											}
, 											{
												"box" : 												{
													"id" : "obj-29",
													"maxclass" : "newobj",
													"numinlets" : 2,
													"numoutlets" : 2,
													"outlettype" : [ "int", "int" ],
													"patching_rect" : [ 59.0, 189.0, 59.0, 22.0 ],
													"style" : "",
													"text" : "minimum"
												}

											}
, 											{
												"box" : 												{
													"comment" : "",
													"id" : "obj-53",
													"index" : 1,
													"maxclass" : "inlet",
													"numinlets" : 0,
													"numoutlets" : 1,
													"outlettype" : [ "" ],
													"patching_rect" : [ 92.0, 40.0, 30.0, 30.0 ],
													"style" : ""
												}

											}
, 											{
												"box" : 												{
													"comment" : "",
													"id" : "obj-54",
													"index" : 2,
													"maxclass" : "inlet",
													"numinlets" : 0,
													"numoutlets" : 1,
													"outlettype" : [ "" ],
													"patching_rect" : [ 136.0, 40.0, 30.0, 30.0 ],
													"style" : ""
												}

											}
, 											{
												"box" : 												{
													"comment" : "",
													"id" : "obj-55",
													"index" : 1,
													"maxclass" : "outlet",
													"numinlets" : 1,
													"numoutlets" : 0,
													"patching_rect" : [ 59.0, 276.432129, 30.0, 30.0 ],
													"style" : ""
												}

											}
 ],
										"lines" : [ 											{
												"patchline" : 												{
													"destination" : [ "obj-45", 0 ],
													"order" : 0,
													"source" : [ "obj-2", 0 ]
												}

											}
, 											{
												"patchline" : 												{
													"destination" : [ "obj-48", 0 ],
													"order" : 1,
													"source" : [ "obj-2", 0 ]
												}

											}
, 											{
												"patchline" : 												{
													"destination" : [ "obj-48", 1 ],
													"order" : 0,
													"source" : [ "obj-29", 0 ]
												}

											}
, 											{
												"patchline" : 												{
													"destination" : [ "obj-55", 0 ],
													"order" : 1,
													"source" : [ "obj-29", 0 ]
												}

											}
, 											{
												"patchline" : 												{
													"destination" : [ "obj-2", 0 ],
													"source" : [ "obj-3", 0 ]
												}

											}
, 											{
												"patchline" : 												{
													"destination" : [ "obj-29", 1 ],
													"source" : [ "obj-45", 1 ]
												}

											}
, 											{
												"patchline" : 												{
													"destination" : [ "obj-48", 0 ],
													"source" : [ "obj-45", 0 ]
												}

											}
, 											{
												"patchline" : 												{
													"destination" : [ "obj-29", 0 ],
													"source" : [ "obj-48", 0 ]
												}

											}
, 											{
												"patchline" : 												{
													"destination" : [ "obj-45", 0 ],
													"source" : [ "obj-49", 0 ]
												}

											}
, 											{
												"patchline" : 												{
													"destination" : [ "obj-49", 0 ],
													"source" : [ "obj-53", 0 ]
												}

											}
, 											{
												"patchline" : 												{
													"destination" : [ "obj-49", 1 ],
													"source" : [ "obj-54", 0 ]
												}

											}
 ]
									}
,
									"patching_rect" : [ 108.5, 100.0, 78.0, 22.0 ],
									"saved_object_attributes" : 									{
										"description" : "",
										"digest" : "",
										"globalpatchername" : "",
										"style" : "",
										"tags" : ""
									}
,
									"style" : "",
									"text" : "p allTimeMin"
								}

							}
, 							{
								"box" : 								{
									"id" : "obj-64",
									"maxclass" : "number",
									"numinlets" : 1,
									"numoutlets" : 2,
									"outlettype" : [ "", "bang" ],
									"parameter_enable" : 0,
									"patching_rect" : [ 258.0, 172.399994, 50.0, 22.0 ],
									"style" : ""
								}

							}
, 							{
								"box" : 								{
									"id" : "obj-60",
									"maxclass" : "newobj",
									"numinlets" : 3,
									"numoutlets" : 1,
									"outlettype" : [ "int" ],
									"patcher" : 									{
										"fileversion" : 1,
										"appversion" : 										{
											"major" : 7,
											"minor" : 3,
											"revision" : 6,
											"architecture" : "x86",
											"modernui" : 1
										}
,
										"rect" : [ 59.0, 104.0, 640.0, 480.0 ],
										"bglocked" : 0,
										"openinpresentation" : 0,
										"default_fontsize" : 12.0,
										"default_fontface" : 0,
										"default_fontname" : "Arial",
										"gridonopen" : 1,
										"gridsize" : [ 15.0, 15.0 ],
										"gridsnaponopen" : 1,
										"objectsnaponopen" : 1,
										"statusbarvisible" : 2,
										"toolbarvisible" : 1,
										"lefttoolbarpinned" : 0,
										"toptoolbarpinned" : 0,
										"righttoolbarpinned" : 0,
										"bottomtoolbarpinned" : 0,
										"toolbars_unpinned_last_save" : 0,
										"tallnewobj" : 0,
										"boxanimatetime" : 200,
										"enablehscroll" : 1,
										"enablevscroll" : 1,
										"devicewidth" : 0.0,
										"description" : "",
										"digest" : "",
										"tags" : "",
										"style" : "",
										"subpatcher_template" : "",
										"boxes" : [ 											{
												"box" : 												{
													"comment" : "",
													"id" : "obj-3",
													"index" : 3,
													"maxclass" : "inlet",
													"numinlets" : 0,
													"numoutlets" : 1,
													"outlettype" : [ "bang" ],
													"patching_rect" : [ 214.0, 33.0, 30.0, 30.0 ],
													"style" : ""
												}

											}
, 											{
												"box" : 												{
													"id" : "obj-2",
													"maxclass" : "message",
													"numinlets" : 2,
													"numoutlets" : 1,
													"outlettype" : [ "" ],
													"patching_rect" : [ 189.0, 105.0, 29.5, 22.0 ],
													"style" : "",
													"text" : "0"
												}

											}
, 											{
												"box" : 												{
													"id" : "obj-49",
													"maxclass" : "newobj",
													"numinlets" : 2,
													"numoutlets" : 2,
													"outlettype" : [ "int", "int" ],
													"patching_rect" : [ 92.0, 100.0, 63.0, 22.0 ],
													"style" : "",
													"text" : "maximum"
												}

											}
, 											{
												"box" : 												{
													"id" : "obj-48",
													"maxclass" : "newobj",
													"numinlets" : 2,
													"numoutlets" : 1,
													"outlettype" : [ "int" ],
													"patching_rect" : [ 50.0, 161.0, 29.5, 22.0 ],
													"style" : "",
													"text" : "i"
												}

											}
, 											{
												"box" : 												{
													"id" : "obj-45",
													"maxclass" : "newobj",
													"numinlets" : 1,
													"numoutlets" : 2,
													"outlettype" : [ "bang", "int" ],
													"patching_rect" : [ 92.0, 131.0, 30.0, 22.0 ],
													"style" : "",
													"text" : "t b i"
												}

											}
, 											{
												"box" : 												{
													"id" : "obj-29",
													"maxclass" : "newobj",
													"numinlets" : 2,
													"numoutlets" : 2,
													"outlettype" : [ "int", "int" ],
													"patching_rect" : [ 59.0, 190.0, 63.0, 22.0 ],
													"style" : "",
													"text" : "maximum"
												}

											}
, 											{
												"box" : 												{
													"comment" : "",
													"id" : "obj-53",
													"index" : 1,
													"maxclass" : "inlet",
													"numinlets" : 0,
													"numoutlets" : 1,
													"outlettype" : [ "" ],
													"patching_rect" : [ 92.0, 40.0, 30.0, 30.0 ],
													"style" : ""
												}

											}
, 											{
												"box" : 												{
													"comment" : "",
													"id" : "obj-54",
													"index" : 2,
													"maxclass" : "inlet",
													"numinlets" : 0,
													"numoutlets" : 1,
													"outlettype" : [ "int" ],
													"patching_rect" : [ 136.0, 40.0, 30.0, 30.0 ],
													"style" : ""
												}

											}
, 											{
												"box" : 												{
													"comment" : "",
													"id" : "obj-55",
													"index" : 1,
													"maxclass" : "outlet",
													"numinlets" : 1,
													"numoutlets" : 0,
													"patching_rect" : [ 59.0, 276.432129, 30.0, 30.0 ],
													"style" : ""
												}

											}
 ],
										"lines" : [ 											{
												"patchline" : 												{
													"destination" : [ "obj-45", 0 ],
													"order" : 0,
													"source" : [ "obj-2", 0 ]
												}

											}
, 											{
												"patchline" : 												{
													"destination" : [ "obj-48", 0 ],
													"order" : 1,
													"source" : [ "obj-2", 0 ]
												}

											}
, 											{
												"patchline" : 												{
													"destination" : [ "obj-48", 1 ],
													"order" : 0,
													"source" : [ "obj-29", 0 ]
												}

											}
, 											{
												"patchline" : 												{
													"destination" : [ "obj-55", 0 ],
													"order" : 1,
													"source" : [ "obj-29", 0 ]
												}

											}
, 											{
												"patchline" : 												{
													"destination" : [ "obj-2", 0 ],
													"source" : [ "obj-3", 0 ]
												}

											}
, 											{
												"patchline" : 												{
													"destination" : [ "obj-29", 1 ],
													"source" : [ "obj-45", 1 ]
												}

											}
, 											{
												"patchline" : 												{
													"destination" : [ "obj-48", 0 ],
													"source" : [ "obj-45", 0 ]
												}

											}
, 											{
												"patchline" : 												{
													"destination" : [ "obj-29", 0 ],
													"source" : [ "obj-48", 0 ]
												}

											}
, 											{
												"patchline" : 												{
													"destination" : [ "obj-45", 0 ],
													"source" : [ "obj-49", 0 ]
												}

											}
, 											{
												"patchline" : 												{
													"destination" : [ "obj-49", 0 ],
													"source" : [ "obj-53", 0 ]
												}

											}
, 											{
												"patchline" : 												{
													"destination" : [ "obj-49", 1 ],
													"source" : [ "obj-54", 0 ]
												}

											}
 ]
									}
,
									"patching_rect" : [ 224.0, 136.0, 81.0, 22.0 ],
									"saved_object_attributes" : 									{
										"description" : "",
										"digest" : "",
										"globalpatchername" : "",
										"style" : "",
										"tags" : ""
									}
,
									"style" : "",
									"text" : "p allTimeMax"
								}

							}
, 							{
								"box" : 								{
									"id" : "obj-56",
									"maxclass" : "newobj",
									"numinlets" : 3,
									"numoutlets" : 1,
									"outlettype" : [ "int" ],
									"patcher" : 									{
										"fileversion" : 1,
										"appversion" : 										{
											"major" : 7,
											"minor" : 3,
											"revision" : 6,
											"architecture" : "x86",
											"modernui" : 1
										}
,
										"rect" : [ 59.0, 104.0, 640.0, 480.0 ],
										"bglocked" : 0,
										"openinpresentation" : 0,
										"default_fontsize" : 12.0,
										"default_fontface" : 0,
										"default_fontname" : "Arial",
										"gridonopen" : 1,
										"gridsize" : [ 15.0, 15.0 ],
										"gridsnaponopen" : 1,
										"objectsnaponopen" : 1,
										"statusbarvisible" : 2,
										"toolbarvisible" : 1,
										"lefttoolbarpinned" : 0,
										"toptoolbarpinned" : 0,
										"righttoolbarpinned" : 0,
										"bottomtoolbarpinned" : 0,
										"toolbars_unpinned_last_save" : 0,
										"tallnewobj" : 0,
										"boxanimatetime" : 200,
										"enablehscroll" : 1,
										"enablevscroll" : 1,
										"devicewidth" : 0.0,
										"description" : "",
										"digest" : "",
										"tags" : "",
										"style" : "",
										"subpatcher_template" : "",
										"boxes" : [ 											{
												"box" : 												{
													"comment" : "",
													"id" : "obj-3",
													"index" : 3,
													"maxclass" : "inlet",
													"numinlets" : 0,
													"numoutlets" : 1,
													"outlettype" : [ "bang" ],
													"patching_rect" : [ 214.0, 33.0, 30.0, 30.0 ],
													"style" : ""
												}

											}
, 											{
												"box" : 												{
													"id" : "obj-2",
													"maxclass" : "message",
													"numinlets" : 2,
													"numoutlets" : 1,
													"outlettype" : [ "" ],
													"patching_rect" : [ 227.0, 93.0, 29.5, 22.0 ],
													"style" : "",
													"text" : "0"
												}

											}
, 											{
												"box" : 												{
													"id" : "obj-49",
													"maxclass" : "newobj",
													"numinlets" : 2,
													"numoutlets" : 2,
													"outlettype" : [ "int", "int" ],
													"patching_rect" : [ 92.0, 100.0, 63.0, 22.0 ],
													"style" : "",
													"text" : "maximum"
												}

											}
, 											{
												"box" : 												{
													"id" : "obj-48",
													"maxclass" : "newobj",
													"numinlets" : 2,
													"numoutlets" : 1,
													"outlettype" : [ "int" ],
													"patching_rect" : [ 50.0, 161.0, 29.5, 22.0 ],
													"style" : "",
													"text" : "i"
												}

											}
, 											{
												"box" : 												{
													"id" : "obj-45",
													"maxclass" : "newobj",
													"numinlets" : 1,
													"numoutlets" : 2,
													"outlettype" : [ "bang", "int" ],
													"patching_rect" : [ 92.0, 131.0, 30.0, 22.0 ],
													"style" : "",
													"text" : "t b i"
												}

											}
, 											{
												"box" : 												{
													"id" : "obj-29",
													"maxclass" : "newobj",
													"numinlets" : 2,
													"numoutlets" : 2,
													"outlettype" : [ "int", "int" ],
													"patching_rect" : [ 59.0, 190.0, 63.0, 22.0 ],
													"style" : "",
													"text" : "maximum"
												}

											}
, 											{
												"box" : 												{
													"comment" : "",
													"id" : "obj-53",
													"index" : 1,
													"maxclass" : "inlet",
													"numinlets" : 0,
													"numoutlets" : 1,
													"outlettype" : [ "" ],
													"patching_rect" : [ 92.0, 40.0, 30.0, 30.0 ],
													"style" : ""
												}

											}
, 											{
												"box" : 												{
													"comment" : "",
													"id" : "obj-54",
													"index" : 2,
													"maxclass" : "inlet",
													"numinlets" : 0,
													"numoutlets" : 1,
													"outlettype" : [ "" ],
													"patching_rect" : [ 136.0, 40.0, 30.0, 30.0 ],
													"style" : ""
												}

											}
, 											{
												"box" : 												{
													"comment" : "",
													"id" : "obj-55",
													"index" : 1,
													"maxclass" : "outlet",
													"numinlets" : 1,
													"numoutlets" : 0,
													"patching_rect" : [ 59.0, 276.432129, 30.0, 30.0 ],
													"style" : ""
												}

											}
 ],
										"lines" : [ 											{
												"patchline" : 												{
													"destination" : [ "obj-45", 0 ],
													"order" : 0,
													"source" : [ "obj-2", 0 ]
												}

											}
, 											{
												"patchline" : 												{
													"destination" : [ "obj-48", 0 ],
													"order" : 1,
													"source" : [ "obj-2", 0 ]
												}

											}
, 											{
												"patchline" : 												{
													"destination" : [ "obj-48", 1 ],
													"order" : 0,
													"source" : [ "obj-29", 0 ]
												}

											}
, 											{
												"patchline" : 												{
													"destination" : [ "obj-55", 0 ],
													"order" : 1,
													"source" : [ "obj-29", 0 ]
												}

											}
, 											{
												"patchline" : 												{
													"destination" : [ "obj-2", 0 ],
													"source" : [ "obj-3", 0 ]
												}

											}
, 											{
												"patchline" : 												{
													"destination" : [ "obj-29", 1 ],
													"source" : [ "obj-45", 1 ]
												}

											}
, 											{
												"patchline" : 												{
													"destination" : [ "obj-48", 0 ],
													"source" : [ "obj-45", 0 ]
												}

											}
, 											{
												"patchline" : 												{
													"destination" : [ "obj-29", 0 ],
													"source" : [ "obj-48", 0 ]
												}

											}
, 											{
												"patchline" : 												{
													"destination" : [ "obj-45", 0 ],
													"source" : [ "obj-49", 0 ]
												}

											}
, 											{
												"patchline" : 												{
													"destination" : [ "obj-49", 0 ],
													"source" : [ "obj-53", 0 ]
												}

											}
, 											{
												"patchline" : 												{
													"destination" : [ "obj-49", 1 ],
													"source" : [ "obj-54", 0 ]
												}

											}
 ]
									}
,
									"patching_rect" : [ 249.0, 101.0, 81.0, 22.0 ],
									"saved_object_attributes" : 									{
										"description" : "",
										"digest" : "",
										"globalpatchername" : "",
										"style" : "",
										"tags" : ""
									}
,
									"style" : "",
									"text" : "p allTimeMax"
								}

							}
, 							{
								"box" : 								{
									"id" : "obj-23",
									"maxclass" : "number",
									"numinlets" : 1,
									"numoutlets" : 2,
									"outlettype" : [ "", "bang" ],
									"parameter_enable" : 0,
									"patching_rect" : [ 247.5, 377.399994, 50.0, 22.0 ],
									"style" : ""
								}

							}
, 							{
								"box" : 								{
									"id" : "obj-25",
									"maxclass" : "newobj",
									"numinlets" : 5,
									"numoutlets" : 1,
									"outlettype" : [ "" ],
									"patching_rect" : [ 247.5, 301.399994, 133.0, 22.0 ],
									"style" : "",
									"text" : "zmap 1000 3000 0 100"
								}

							}
, 							{
								"box" : 								{
									"id" : "obj-21",
									"maxclass" : "number",
									"numinlets" : 1,
									"numoutlets" : 2,
									"outlettype" : [ "", "bang" ],
									"parameter_enable" : 0,
									"patching_rect" : [ 191.0, 341.399994, 50.0, 22.0 ],
									"style" : ""
								}

							}
, 							{
								"box" : 								{
									"id" : "obj-22",
									"maxclass" : "newobj",
									"numinlets" : 5,
									"numoutlets" : 1,
									"outlettype" : [ "" ],
									"patching_rect" : [ 191.0, 270.399994, 133.0, 22.0 ],
									"style" : "",
									"text" : "zmap 1000 3000 0 100"
								}

							}
, 							{
								"box" : 								{
									"id" : "obj-19",
									"maxclass" : "number",
									"numinlets" : 1,
									"numoutlets" : 2,
									"outlettype" : [ "", "bang" ],
									"parameter_enable" : 0,
									"patching_rect" : [ 130.0, 307.399994, 50.0, 22.0 ],
									"style" : ""
								}

							}
, 							{
								"box" : 								{
									"id" : "obj-16",
									"maxclass" : "newobj",
									"numinlets" : 5,
									"numoutlets" : 1,
									"outlettype" : [ "" ],
									"patching_rect" : [ 130.0, 246.399994, 133.0, 22.0 ],
									"style" : "",
									"text" : "zmap 1000 3000 0 100"
								}

							}
, 							{
								"box" : 								{
									"id" : "obj-15",
									"maxclass" : "number",
									"numinlets" : 1,
									"numoutlets" : 2,
									"outlettype" : [ "", "bang" ],
									"parameter_enable" : 0,
									"patching_rect" : [ 122.5, 172.399994, 50.0, 22.0 ],
									"style" : ""
								}

							}
, 							{
								"box" : 								{
									"comment" : "",
									"id" : "obj-120",
									"index" : 1,
									"maxclass" : "inlet",
									"numinlets" : 0,
									"numoutlets" : 1,
									"outlettype" : [ "" ],
									"patching_rect" : [ 148.166687, 40.0, 30.0, 30.0 ],
									"style" : ""
								}

							}
, 							{
								"box" : 								{
									"comment" : "",
									"id" : "obj-121",
									"index" : 2,
									"maxclass" : "inlet",
									"numinlets" : 0,
									"numoutlets" : 1,
									"outlettype" : [ "" ],
									"patching_rect" : [ 218.166687, 40.0, 30.0, 30.0 ],
									"style" : ""
								}

							}
, 							{
								"box" : 								{
									"comment" : "",
									"id" : "obj-122",
									"index" : 3,
									"maxclass" : "inlet",
									"numinlets" : 0,
									"numoutlets" : 1,
									"outlettype" : [ "" ],
									"patching_rect" : [ 253.166687, 40.0, 30.0, 30.0 ],
									"style" : ""
								}

							}
, 							{
								"box" : 								{
									"comment" : "",
									"id" : "obj-123",
									"index" : 4,
									"maxclass" : "inlet",
									"numinlets" : 0,
									"numoutlets" : 1,
									"outlettype" : [ "bang" ],
									"patching_rect" : [ 389.166687, 36.0, 30.0, 30.0 ],
									"style" : ""
								}

							}
, 							{
								"box" : 								{
									"comment" : "",
									"id" : "obj-124",
									"index" : 1,
									"maxclass" : "outlet",
									"numinlets" : 1,
									"numoutlets" : 0,
									"patching_rect" : [ 50.0, 626.5, 30.0, 30.0 ],
									"style" : ""
								}

							}
, 							{
								"box" : 								{
									"comment" : "",
									"id" : "obj-125",
									"index" : 2,
									"maxclass" : "outlet",
									"numinlets" : 1,
									"numoutlets" : 0,
									"patching_rect" : [ 135.0, 626.5, 30.0, 30.0 ],
									"style" : ""
								}

							}
, 							{
								"box" : 								{
									"comment" : "",
									"id" : "obj-126",
									"index" : 3,
									"maxclass" : "outlet",
									"numinlets" : 1,
									"numoutlets" : 0,
									"patching_rect" : [ 231.0, 626.5, 30.0, 30.0 ],
									"style" : ""
								}

							}
 ],
						"lines" : [ 							{
								"patchline" : 								{
									"destination" : [ "obj-105", 0 ],
									"source" : [ "obj-1", 0 ]
								}

							}
, 							{
								"patchline" : 								{
									"destination" : [ "obj-124", 0 ],
									"source" : [ "obj-103", 0 ]
								}

							}
, 							{
								"patchline" : 								{
									"destination" : [ "obj-74", 0 ],
									"source" : [ "obj-105", 0 ]
								}

							}
, 							{
								"patchline" : 								{
									"destination" : [ "obj-125", 0 ],
									"source" : [ "obj-108", 0 ]
								}

							}
, 							{
								"patchline" : 								{
									"destination" : [ "obj-126", 0 ],
									"source" : [ "obj-110", 0 ]
								}

							}
, 							{
								"patchline" : 								{
									"destination" : [ "obj-16", 0 ],
									"order" : 1,
									"source" : [ "obj-120", 0 ]
								}

							}
, 							{
								"patchline" : 								{
									"destination" : [ "obj-60", 0 ],
									"order" : 0,
									"source" : [ "obj-120", 0 ]
								}

							}
, 							{
								"patchline" : 								{
									"destination" : [ "obj-66", 0 ],
									"order" : 2,
									"source" : [ "obj-120", 0 ]
								}

							}
, 							{
								"patchline" : 								{
									"destination" : [ "obj-22", 0 ],
									"order" : 1,
									"source" : [ "obj-121", 0 ]
								}

							}
, 							{
								"patchline" : 								{
									"destination" : [ "obj-56", 0 ],
									"order" : 0,
									"source" : [ "obj-121", 0 ]
								}

							}
, 							{
								"patchline" : 								{
									"destination" : [ "obj-66", 1 ],
									"order" : 2,
									"source" : [ "obj-121", 0 ]
								}

							}
, 							{
								"patchline" : 								{
									"destination" : [ "obj-25", 0 ],
									"order" : 1,
									"source" : [ "obj-122", 0 ]
								}

							}
, 							{
								"patchline" : 								{
									"destination" : [ "obj-56", 1 ],
									"order" : 0,
									"source" : [ "obj-122", 0 ]
								}

							}
, 							{
								"patchline" : 								{
									"destination" : [ "obj-68", 1 ],
									"order" : 2,
									"source" : [ "obj-122", 0 ]
								}

							}
, 							{
								"patchline" : 								{
									"destination" : [ "obj-56", 2 ],
									"order" : 0,
									"source" : [ "obj-123", 0 ]
								}

							}
, 							{
								"patchline" : 								{
									"destination" : [ "obj-60", 2 ],
									"order" : 1,
									"source" : [ "obj-123", 0 ]
								}

							}
, 							{
								"patchline" : 								{
									"destination" : [ "obj-66", 2 ],
									"order" : 3,
									"source" : [ "obj-123", 0 ]
								}

							}
, 							{
								"patchline" : 								{
									"destination" : [ "obj-68", 2 ],
									"order" : 2,
									"source" : [ "obj-123", 0 ]
								}

							}
, 							{
								"patchline" : 								{
									"destination" : [ "obj-16", 1 ],
									"order" : 2,
									"source" : [ "obj-15", 0 ]
								}

							}
, 							{
								"patchline" : 								{
									"destination" : [ "obj-22", 1 ],
									"order" : 1,
									"source" : [ "obj-15", 0 ]
								}

							}
, 							{
								"patchline" : 								{
									"destination" : [ "obj-25", 1 ],
									"order" : 0,
									"source" : [ "obj-15", 0 ]
								}

							}
, 							{
								"patchline" : 								{
									"destination" : [ "obj-19", 0 ],
									"source" : [ "obj-16", 0 ]
								}

							}
, 							{
								"patchline" : 								{
									"destination" : [ "obj-103", 0 ],
									"source" : [ "obj-19", 0 ]
								}

							}
, 							{
								"patchline" : 								{
									"destination" : [ "obj-108", 0 ],
									"source" : [ "obj-21", 0 ]
								}

							}
, 							{
								"patchline" : 								{
									"destination" : [ "obj-21", 0 ],
									"source" : [ "obj-22", 0 ]
								}

							}
, 							{
								"patchline" : 								{
									"destination" : [ "obj-110", 0 ],
									"source" : [ "obj-23", 0 ]
								}

							}
, 							{
								"patchline" : 								{
									"destination" : [ "obj-23", 0 ],
									"source" : [ "obj-25", 0 ]
								}

							}
, 							{
								"patchline" : 								{
									"destination" : [ "obj-60", 1 ],
									"source" : [ "obj-56", 0 ]
								}

							}
, 							{
								"patchline" : 								{
									"destination" : [ "obj-64", 0 ],
									"source" : [ "obj-60", 0 ]
								}

							}
, 							{
								"patchline" : 								{
									"destination" : [ "obj-16", 2 ],
									"order" : 2,
									"source" : [ "obj-64", 0 ]
								}

							}
, 							{
								"patchline" : 								{
									"destination" : [ "obj-22", 2 ],
									"order" : 1,
									"source" : [ "obj-64", 0 ]
								}

							}
, 							{
								"patchline" : 								{
									"destination" : [ "obj-25", 2 ],
									"order" : 0,
									"source" : [ "obj-64", 0 ]
								}

							}
, 							{
								"patchline" : 								{
									"destination" : [ "obj-68", 0 ],
									"source" : [ "obj-66", 0 ]
								}

							}
, 							{
								"patchline" : 								{
									"destination" : [ "obj-15", 0 ],
									"source" : [ "obj-68", 0 ]
								}

							}
, 							{
								"patchline" : 								{
									"destination" : [ "obj-103", 1 ],
									"order" : 2,
									"source" : [ "obj-74", 0 ]
								}

							}
, 							{
								"patchline" : 								{
									"destination" : [ "obj-108", 1 ],
									"order" : 1,
									"source" : [ "obj-74", 0 ]
								}

							}
, 							{
								"patchline" : 								{
									"destination" : [ "obj-110", 1 ],
									"order" : 0,
									"source" : [ "obj-74", 0 ]
								}

							}
 ]
					}
,
					"patching_rect" : [ 641.5, 354.600006, 167.0, 22.0 ],
					"saved_object_attributes" : 					{
						"description" : "",
						"digest" : "",
						"globalpatchername" : "",
						"style" : "",
						"tags" : ""
					}
,
					"style" : "",
					"text" : "p autoScale-SmoothOperator"
				}

			}
, 			{
				"box" : 				{
					"id" : "obj-119",
					"maxclass" : "newobj",
					"numinlets" : 1,
					"numoutlets" : 5,
					"outlettype" : [ "", "", "", "", "" ],
					"patching_rect" : [ 360.0, 235.199997, 121.0, 22.0 ],
					"style" : "",
					"text" : "OSC-route /1 /2 /3 /4"
				}

			}
, 			{
				"box" : 				{
					"format" : 6,
					"id" : "obj-111",
					"maxclass" : "flonum",
					"numinlets" : 1,
					"numoutlets" : 2,
					"outlettype" : [ "", "bang" ],
					"parameter_enable" : 0,
					"patching_rect" : [ 789.5, 413.0, 50.0, 22.0 ],
					"presentation_rect" : [ 575.0, 798.100037, 0.0, 0.0 ],
					"style" : ""
				}

			}
, 			{
				"box" : 				{
					"format" : 6,
					"id" : "obj-109",
					"maxclass" : "flonum",
					"numinlets" : 1,
					"numoutlets" : 2,
					"outlettype" : [ "", "bang" ],
					"parameter_enable" : 0,
					"patching_rect" : [ 715.5, 406.0, 50.0, 22.0 ],
					"presentation_rect" : [ 483.0, 763.100037, 0.0, 0.0 ],
					"style" : ""
				}

			}
, 			{
				"box" : 				{
					"format" : 6,
					"id" : "obj-99",
					"maxclass" : "flonum",
					"numinlets" : 1,
					"numoutlets" : 2,
					"outlettype" : [ "", "bang" ],
					"parameter_enable" : 0,
					"patching_rect" : [ 641.5, 397.0, 50.0, 22.0 ],
					"style" : ""
				}

			}
, 			{
				"box" : 				{
					"id" : "obj-72",
					"linecount" : 2,
					"maxclass" : "comment",
					"numinlets" : 1,
					"numoutlets" : 0,
					"patching_rect" : [ 914.0, 212.0, 58.0, 33.0 ],
					"style" : "",
					"text" : "Clear min/max"
				}

			}
, 			{
				"box" : 				{
					"id" : "obj-67",
					"maxclass" : "button",
					"numinlets" : 1,
					"numoutlets" : 1,
					"outlettype" : [ "bang" ],
					"patching_rect" : [ 914.0, 247.0, 46.0, 46.0 ],
					"presentation_rect" : [ 477.0, 311.0, 0.0, 0.0 ],
					"style" : ""
				}

			}
, 			{
				"box" : 				{
					"id" : "obj-4",
					"maxclass" : "newobj",
					"numinlets" : 1,
					"numoutlets" : 4,
					"outlettype" : [ "", "", "", "" ],
					"patching_rect" : [ 641.5, 270.0, 169.0, 22.0 ],
					"style" : "",
					"text" : "OSC-route /x /y /z"
				}

			}
, 			{
				"box" : 				{
					"id" : "obj-3",
					"maxclass" : "newobj",
					"numinlets" : 1,
					"numoutlets" : 5,
					"outlettype" : [ "", "", "", "", "" ],
					"patching_rect" : [ 501.5, 235.199997, 121.0, 22.0 ],
					"style" : "",
					"text" : "OSC-route /1 /2 /3 /4"
				}

			}
, 			{
				"box" : 				{
					"id" : "obj-80",
					"maxclass" : "newobj",
					"numinlets" : 1,
					"numoutlets" : 1,
					"outlettype" : [ "" ],
					"patching_rect" : [ 150.400009, 482.0, 34.0, 22.0 ],
					"style" : "",
					"text" : "mtof"
				}

			}
, 			{
				"box" : 				{
					"id" : "obj-79",
					"maxclass" : "newobj",
					"numinlets" : 5,
					"numoutlets" : 1,
					"outlettype" : [ "" ],
					"patching_rect" : [ 150.400009, 447.600006, 113.0, 22.0 ],
					"style" : "",
					"text" : "zmap 33 100 48 72"
				}

			}
, 			{
				"box" : 				{
					"id" : "obj-75",
					"maxclass" : "newobj",
					"numinlets" : 3,
					"numoutlets" : 1,
					"outlettype" : [ "" ],
					"patching_rect" : [ 150.400009, 407.0, 69.0, 22.0 ],
					"style" : "",
					"text" : "clip 33 100"
				}

			}
, 			{
				"box" : 				{
					"id" : "obj-69",
					"maxclass" : "newobj",
					"numinlets" : 2,
					"numoutlets" : 1,
					"outlettype" : [ "float" ],
					"patching_rect" : [ 150.400009, 377.399994, 83.0, 22.0 ],
					"style" : "",
					"text" : "snapshot~ 10"
				}

			}
, 			{
				"box" : 				{
					"format" : 6,
					"id" : "obj-65",
					"maxclass" : "flonum",
					"numinlets" : 1,
					"numoutlets" : 2,
					"outlettype" : [ "", "bang" ],
					"parameter_enable" : 0,
					"patching_rect" : [ 150.400009, 239.199997, 50.0, 22.0 ],
					"style" : ""
				}

			}
, 			{
				"box" : 				{
					"id" : "obj-59",
					"maxclass" : "message",
					"numinlets" : 2,
					"numoutlets" : 1,
					"outlettype" : [ "" ],
					"patching_rect" : [ 150.400009, 297.200012, 47.0, 22.0 ],
					"style" : "",
					"text" : "$1 100"
				}

			}
, 			{
				"box" : 				{
					"id" : "obj-57",
					"maxclass" : "newobj",
					"numinlets" : 2,
					"numoutlets" : 2,
					"outlettype" : [ "signal", "bang" ],
					"patching_rect" : [ 150.400009, 340.200012, 36.0, 22.0 ],
					"style" : "",
					"text" : "line~"
				}

			}
, 			{
				"box" : 				{
					"id" : "obj-52",
					"maxclass" : "newobj",
					"numinlets" : 1,
					"numoutlets" : 3,
					"outlettype" : [ "", "int", "int" ],
					"patching_rect" : [ 322.0, 327.200012, 50.0, 22.0 ],
					"style" : "",
					"text" : "change"
				}

			}
, 			{
				"box" : 				{
					"id" : "obj-51",
					"maxclass" : "ezdac~",
					"numinlets" : 2,
					"numoutlets" : 0,
					"patching_rect" : [ 317.300018, 646.600037, 45.0, 45.0 ],
					"style" : ""
				}

			}
, 			{
				"box" : 				{
					"id" : "obj-47",
					"maxclass" : "newobj",
					"numinlets" : 2,
					"numoutlets" : 1,
					"outlettype" : [ "signal" ],
					"patching_rect" : [ 310.5, 593.0, 29.5, 22.0 ],
					"style" : "",
					"text" : "*~"
				}

			}
, 			{
				"box" : 				{
					"id" : "obj-46",
					"maxclass" : "message",
					"numinlets" : 2,
					"numoutlets" : 1,
					"outlettype" : [ "" ],
					"patching_rect" : [ 322.0, 428.0, 41.0, 22.0 ],
					"style" : "",
					"text" : "1 100"
				}

			}
, 			{
				"box" : 				{
					"id" : "obj-44",
					"maxclass" : "message",
					"numinlets" : 2,
					"numoutlets" : 1,
					"outlettype" : [ "" ],
					"patching_rect" : [ 335.5, 469.0, 41.0, 22.0 ],
					"style" : "",
					"text" : "0 100"
				}

			}
, 			{
				"box" : 				{
					"id" : "obj-41",
					"maxclass" : "newobj",
					"numinlets" : 2,
					"numoutlets" : 2,
					"outlettype" : [ "signal", "bang" ],
					"patching_rect" : [ 321.0, 509.0, 36.0, 22.0 ],
					"style" : "",
					"text" : "line~"
				}

			}
, 			{
				"box" : 				{
					"id" : "obj-40",
					"maxclass" : "newobj",
					"numinlets" : 1,
					"numoutlets" : 2,
					"outlettype" : [ "bang", "bang" ],
					"patching_rect" : [ 322.0, 394.0, 34.0, 22.0 ],
					"style" : "",
					"text" : "t b b"
				}

			}
, 			{
				"box" : 				{
					"id" : "obj-39",
					"maxclass" : "newobj",
					"numinlets" : 3,
					"numoutlets" : 3,
					"outlettype" : [ "bang", "bang", "" ],
					"patching_rect" : [ 322.0, 362.0, 46.0, 22.0 ],
					"style" : "",
					"text" : "sel 0 1"
				}

			}
, 			{
				"box" : 				{
					"id" : "obj-26",
					"maxclass" : "newobj",
					"numinlets" : 2,
					"numoutlets" : 1,
					"outlettype" : [ "signal" ],
					"patching_rect" : [ 150.400009, 515.0, 68.0, 22.0 ],
					"style" : "",
					"text" : "cycle~ 200"
				}

			}
, 			{
				"box" : 				{
					"id" : "obj-30",
					"maxclass" : "number",
					"numinlets" : 1,
					"numoutlets" : 2,
					"outlettype" : [ "", "bang" ],
					"parameter_enable" : 0,
					"patching_rect" : [ 501.5, 268.200012, 50.0, 22.0 ],
					"style" : ""
				}

			}
, 			{
				"box" : 				{
					"id" : "obj-28",
					"maxclass" : "newobj",
					"numinlets" : 1,
					"numoutlets" : 5,
					"outlettype" : [ "", "", "", "", "" ],
					"patching_rect" : [ 284.5, 184.0, 495.0, 22.0 ],
					"style" : "",
					"text" : "OSC-route /distance /digital/1 /analog /accelerometer"
				}

			}
, 			{
				"box" : 				{
					"id" : "obj-27",
					"maxclass" : "newobj",
					"numinlets" : 1,
					"numoutlets" : 3,
					"outlettype" : [ "", "", "OSCTimeTag" ],
					"patching_rect" : [ 222.0, 148.0, 144.0, 22.0 ],
					"style" : "",
					"text" : "OpenSoundControl"
				}

			}
, 			{
				"box" : 				{
					"id" : "obj-24",
					"maxclass" : "toggle",
					"numinlets" : 1,
					"numoutlets" : 1,
					"outlettype" : [ "int" ],
					"parameter_enable" : 0,
					"patching_rect" : [ 360.0, 268.200012, 24.0, 24.0 ],
					"style" : ""
				}

			}
, 			{
				"box" : 				{
					"id" : "obj-17",
					"maxclass" : "newobj",
					"numinlets" : 1,
					"numoutlets" : 1,
					"outlettype" : [ "" ],
					"patching_rect" : [ 222.0, 112.0, 135.0, 22.0 ],
					"style" : "",
					"text" : "udpreceive 9999 cnmat"
				}

			}
 ],
		"lines" : [ 			{
				"patchline" : 				{
					"destination" : [ "obj-24", 0 ],
					"source" : [ "obj-119", 0 ]
				}

			}
, 			{
				"patchline" : 				{
					"destination" : [ "obj-109", 0 ],
					"source" : [ "obj-127", 1 ]
				}

			}
, 			{
				"patchline" : 				{
					"destination" : [ "obj-111", 0 ],
					"source" : [ "obj-127", 2 ]
				}

			}
, 			{
				"patchline" : 				{
					"destination" : [ "obj-99", 0 ],
					"source" : [ "obj-127", 0 ]
				}

			}
, 			{
				"patchline" : 				{
					"destination" : [ "obj-27", 0 ],
					"source" : [ "obj-17", 0 ]
				}

			}
, 			{
				"patchline" : 				{
					"destination" : [ "obj-52", 0 ],
					"source" : [ "obj-24", 0 ]
				}

			}
, 			{
				"patchline" : 				{
					"destination" : [ "obj-47", 0 ],
					"source" : [ "obj-26", 0 ]
				}

			}
, 			{
				"patchline" : 				{
					"destination" : [ "obj-28", 0 ],
					"source" : [ "obj-27", 1 ]
				}

			}
, 			{
				"patchline" : 				{
					"destination" : [ "obj-119", 0 ],
					"source" : [ "obj-28", 1 ]
				}

			}
, 			{
				"patchline" : 				{
					"destination" : [ "obj-3", 0 ],
					"source" : [ "obj-28", 2 ]
				}

			}
, 			{
				"patchline" : 				{
					"destination" : [ "obj-4", 0 ],
					"source" : [ "obj-28", 3 ]
				}

			}
, 			{
				"patchline" : 				{
					"destination" : [ "obj-65", 0 ],
					"source" : [ "obj-28", 0 ]
				}

			}
, 			{
				"patchline" : 				{
					"destination" : [ "obj-30", 0 ],
					"source" : [ "obj-3", 0 ]
				}

			}
, 			{
				"patchline" : 				{
					"destination" : [ "obj-40", 0 ],
					"source" : [ "obj-39", 0 ]
				}

			}
, 			{
				"patchline" : 				{
					"destination" : [ "obj-44", 0 ],
					"source" : [ "obj-39", 1 ]
				}

			}
, 			{
				"patchline" : 				{
					"destination" : [ "obj-127", 2 ],
					"source" : [ "obj-4", 2 ]
				}

			}
, 			{
				"patchline" : 				{
					"destination" : [ "obj-127", 1 ],
					"source" : [ "obj-4", 1 ]
				}

			}
, 			{
				"patchline" : 				{
					"destination" : [ "obj-127", 0 ],
					"source" : [ "obj-4", 0 ]
				}

			}
, 			{
				"patchline" : 				{
					"destination" : [ "obj-46", 0 ],
					"source" : [ "obj-40", 0 ]
				}

			}
, 			{
				"patchline" : 				{
					"destination" : [ "obj-47", 1 ],
					"source" : [ "obj-41", 0 ]
				}

			}
, 			{
				"patchline" : 				{
					"destination" : [ "obj-41", 0 ],
					"source" : [ "obj-44", 0 ]
				}

			}
, 			{
				"patchline" : 				{
					"destination" : [ "obj-41", 0 ],
					"source" : [ "obj-46", 0 ]
				}

			}
, 			{
				"patchline" : 				{
					"destination" : [ "obj-51", 1 ],
					"order" : 0,
					"source" : [ "obj-47", 0 ]
				}

			}
, 			{
				"patchline" : 				{
					"destination" : [ "obj-51", 0 ],
					"order" : 1,
					"source" : [ "obj-47", 0 ]
				}

			}
, 			{
				"patchline" : 				{
					"destination" : [ "obj-39", 0 ],
					"source" : [ "obj-52", 0 ]
				}

			}
, 			{
				"patchline" : 				{
					"destination" : [ "obj-69", 0 ],
					"source" : [ "obj-57", 0 ]
				}

			}
, 			{
				"patchline" : 				{
					"destination" : [ "obj-57", 0 ],
					"source" : [ "obj-59", 0 ]
				}

			}
, 			{
				"patchline" : 				{
					"destination" : [ "obj-59", 0 ],
					"source" : [ "obj-65", 0 ]
				}

			}
, 			{
				"patchline" : 				{
					"destination" : [ "obj-127", 3 ],
					"source" : [ "obj-67", 0 ]
				}

			}
, 			{
				"patchline" : 				{
					"destination" : [ "obj-75", 0 ],
					"source" : [ "obj-69", 0 ]
				}

			}
, 			{
				"patchline" : 				{
					"destination" : [ "obj-79", 0 ],
					"source" : [ "obj-75", 0 ]
				}

			}
, 			{
				"patchline" : 				{
					"destination" : [ "obj-80", 0 ],
					"source" : [ "obj-79", 0 ]
				}

			}
, 			{
				"patchline" : 				{
					"destination" : [ "obj-26", 0 ],
					"source" : [ "obj-80", 0 ]
				}

			}
 ],
		"dependency_cache" : [ 			{
				"name" : "OpenSoundControl.mxo",
				"type" : "iLaX"
			}
, 			{
				"name" : "OSC-route.mxo",
				"type" : "iLaX"
			}
 ],
		"autosave" : 0
	}

}
